<?xml version="1.0" encoding="UTF-8"?>
<svg id="Layer_1" xmlns="http://www.w3.org/2000/svg" version="1.1" viewBox="0 0 101.792 228.414">
  <!-- Generator: Adobe Illustrator 29.8.0, SVG Export Plug-In . SVG Version: 2.1.1 Build 160)  -->
  <defs>
    <style>
      .st0 {
        fill: #fff;
      }
    </style>
  </defs>
  <g>
    <path class="st0" d="M21.135,25.185c0,4.965.382,9.676.382,9.676l-4.328,1.146s-.637-5.475-.637-10.822c0-13.24,2.801-18.842,2.801-18.842,0,0-1.4-1.019-3.183-1.019-5.602,0-7.002,8.912-7.002,15.278,0,7.257,1.401,15.15,4.965,24.189l7.512,19.988c2.419,6.493,3.565,16.296,3.565,27.118,0,7.511-.254,23.171-10.185,23.171-8.53,0-10.185-13.495-10.185-23.171,0-9.803.636-18.333.636-18.333l5.729-3.183s-1.4,6.239-1.4,21.517c0,10.439.636,19.606,5.22,19.606,4.965,0,5.22-10.058,5.22-19.606,0-9.931-.254-17.697-3.183-25.591l-7.257-19.097c-3.692-9.93-5.602-17.06-5.602-26.608C4.202,12.072,7.894,1.759,15.788,1.759c5.857,0,8.658,2.419,8.658,2.419,0,0-3.31,7.894-3.31,21.007Z"/>
    <path class="st0" d="M45.834,105.138l-2.037,9.039h-15.023v-1.146s2.037,0,2.037-2.165V4.942c0-1.528-2.037-1.528-2.037-1.528v-.891h14.386l2.037,6.111s-.382.254-.764,0c-1.146-.764-3.565-2.928-7.129-2.928h-1.401v49.144l3.183-2.419c1.783-1.273,2.292-3.565,2.292-4.583h.636v12.095h-.764l-.509-2.419-4.838,3.565v50.417s.637.127.891,0c4.456,0,8.53-6.366,8.53-6.366h.509Z"/>
    <path class="st0" d="M73.078,114.177h-8.657v-1.146s2.037-.128,2.037-1.528l-1.783-37.176-9.803,5.602-1.528,31.574c0,1.4,2.291,1.528,2.291,1.528v1.146h-9.294v-1.146s1.783,0,1.91-2.165L53.472,4.815c0-1.018-2.037-1.273-2.037-1.273v-1.019h16.551v1.019s-1.91.382-1.91,1.4l5.347,105.925c.128,2.165,1.655,2.165,1.655,2.165v1.146ZM64.294,68.854l-2.928-62.002h-3.055l-3.183,67.095,9.167-5.093Z"/>
    <path class="st0" d="M98.923,114.177h-5.602l-9.931-66.076-1.528-16.296h-.636l.509,10.822v68.24c0,2.165,1.655,2.165,1.655,2.165v1.146h-8.275v-1.146s2.037,0,2.037-2.165V5.451c0-1.783-2.037-1.783-2.037-1.783v-1.146h5.729l9.803,65.057,1.528,13.877h.636l-.382-11.967V5.451c0-1.783-1.91-1.783-1.91-1.783v-1.146h8.402v1.146s-1.91,0-1.91,1.783v105.416c0,2.165,1.91,2.165,1.91,2.165v1.146Z"/>
  </g>
  <g>
    <path class="st0" d="M16.275,128.3s-.281.187-.562,0c-.842-.562-2.621-2.153-5.241-2.153h-1.03v36.129l2.247-1.685c1.217-.936,1.685-2.714,1.685-3.463h.562v9.266h-.468l-.655-2.059-3.37,2.527v36.597c0,1.591,1.778,1.591,1.778,1.591v.842h-7.02v-.749s1.498-.094,1.498-1.685v-77.779c0-1.123-1.498-1.123-1.498-1.123v-.749h10.576l1.498,4.493Z"/>
    <path class="st0" d="M30.409,199.247l-1.498,6.646h-11.044v-.749s1.498,0,1.498-1.591v-77.592c0-1.311-1.498-1.311-1.498-1.311v-.842h6.552v.842s-1.311,0-1.311,1.311v77.967s.562.093.655,0c3.276,0,6.271-4.68,6.271-4.68h.375Z"/>
    <path class="st0" d="M50.438,205.892h-6.364v-.842s1.497-.094,1.497-1.123l-1.31-27.331-7.208,4.118-1.123,23.212c0,1.029,1.685,1.123,1.685,1.123v.842h-6.833v-.842s1.311,0,1.404-1.591l3.838-77.967c0-.749-1.498-.936-1.498-.936v-.749h12.167v.749s-1.403.281-1.403,1.029l3.931,77.873c.094,1.591,1.217,1.591,1.217,1.591v.842ZM43.98,172.571l-2.152-45.582h-2.247l-2.34,49.326,6.739-3.744Z"/>
    <path class="st0" d="M56.99,124.649s-1.498,0-1.498,1.311l3.65,46.705.281,16.567h.468l.374-16.567,3.276-45.021c.188-2.901,1.404-4.305,3.557-4.305,1.872,0,2.527.842,2.527.842v2.995s-.375-.562-1.217-.562-1.123.842-1.311,2.152l-5.522,74.691c0,1.591,1.311,1.591,1.311,1.591v.842h-6.552v-.842s1.591,0,1.591-1.591l-6.084-77.499c-.093-1.311-1.403-1.311-1.403-1.311v-.842h6.552v.842Z"/>
    <path class="st0" d="M78.05,205.892h-6.552v-.749s1.497,0,1.497-1.591v-77.592c0-1.311-1.497-1.311-1.497-1.311v-.842h6.552v.842s-1.311,0-1.311,1.311v77.592c0,1.591,1.311,1.591,1.311,1.591v.749Z"/>
    <path class="st0" d="M98.923,205.892h-4.119l-7.3-48.577-1.123-11.98h-.469l.375,7.956v50.168c0,1.591,1.217,1.591,1.217,1.591v.842h-6.084v-.842s1.497,0,1.497-1.591v-77.499c0-1.311-1.497-1.311-1.497-1.311v-.842h4.212l7.207,47.828,1.123,10.202h.468l-.28-8.798v-47.08c0-1.311-1.404-1.311-1.404-1.311v-.842h6.178v.842s-1.404,0-1.404,1.311v77.499c0,1.591,1.404,1.591,1.404,1.591v.842Z"/>
  </g>
  <g>
    <path class="st0" d="M0,228.188v-3.396h3.301v-8.187H0v-3.396h7.885c2.245,0,4.603.66,5.999,2.037,1.453,1.434,2.245,3.377,2.245,5.414,0,2.056-.773,4.018-2.245,5.471-1.396,1.377-3.754,2.056-5.999,2.056H0ZM7.885,224.792c4.376,0,6.848-1.698,6.848-4.131,0-2.377-2.471-4.056-6.848-4.056h-3.075v8.187h3.075Z"/>
    <path class="st0" d="M31.239,214.455c1.245.83,2.396,2.207,2.773,3.754l.057.226h-1.622l-.057-.057c-1.509-1.509-4.282-2.056-6.319-2.056-3.509,0-6.47.66-6.47,2.018,0,1.019.924,1.622,2.434,1.622h8.564v1.49h-8.564c-1.509,0-2.434.604-2.434,1.622,0,1.358,2.962,2.018,6.47,2.018,2.037,0,4.81-.547,6.319-2.056l.057-.057h1.622l-.057.226c-.377,1.547-1.339,2.735-2.773,3.754-1.396,1-3.169,1.453-4.848,1.453-5.131,0-8.281-2.264-8.281-4.942,0-1.415.849-2.377,2.358-2.754-1.509-.396-2.358-1.358-2.358-2.773,0-2.679,3.15-4.942,8.281-4.942,1.679,0,3.641.641,4.848,1.452Z"/>
    <path class="st0" d="M49.085,214.455c1.245.83,2.396,2.207,2.773,3.754l.056.226h-1.622l-.057-.057c-1.509-1.509-4.282-2.056-6.319-2.056-3.509,0-6.47.66-6.47,2.018,0,1,.924,1.604,2.434,1.604h8.112c2.452,0,3.924,1.094,3.924,2.943,0,2.98-3.15,5.508-8.281,5.508-1.679,0-3.641-.641-4.848-1.453-1.245-.83-2.396-2.207-2.773-3.754l-.057-.226h1.622l.057.057c1.509,1.509,4.282,2.056,6.32,2.056,3.509,0,6.47-.66,6.47-2.019,0-1-.924-1.603-2.434-1.603h-8.112c-2.452,0-3.924-1.094-3.924-2.943,0-2.98,3.15-5.508,8.281-5.508,1.679,0,3.641.641,4.848,1.452Z"/>
    <path class="st0" d="M53.707,213.21h8.64v3.131h-3.565v8.715h3.565v3.131h-8.64v-3.131h3.565v-8.715h-3.565v-3.131Z"/>
    <path class="st0" d="M65.818,226.132c-1.434-1.471-2.245-3.396-2.245-5.452,0-2.037.811-3.999,2.245-5.433,1.453-1.453,3.754-2.245,6.018-2.245,1.622,0,3.207.528,4.527,1.377,1.358.905,2.113,1.962,2.603,3.735.019.113.056.226.075.34h-1.509l-.094-.113c-1.037-1.188-2.943-1.943-5.603-1.943-4.395,0-6.867,1.773-6.867,4.282,0,2.528,2.471,4.301,6.867,4.301,2.452,0,4.358-.66,5.376-1.679.472-.472.792-1.094.792-1.83h-9.998v-1.509h11.507v8.036h-1.509v-2.471c-.358.528-.792.981-1.339,1.415-1.302,1.037-3.113,1.434-4.829,1.434-2.264,0-4.584-.773-6.018-2.245Z"/>
    <path class="st0" d="M94.36,226.528c-1.038-1.037-1.736-2.547-2.679-4.15l-1.679-2.867c-1.019-1.754-2.094-2.66-3.811-2.999v8.546h3.754v3.131h-8.64v-3.131h3.377v-8.696h-3.377v-3.131h2.773c1.867,0,3.433.434,4.659,1.66,1.038,1.038,1.717,2.452,2.698,4.15l1.66,2.867c.981,1.717,2.037,2.641,3.811,2.999v-8.545h-3.754v-3.131h8.64v3.131h-3.377v8.696h3.377v3.131h-2.773c-1.868,0-3.452-.453-4.659-1.66Z"/>
  </g>
</svg>